<svg width="38" height="39" viewBox="0 0 38 39" fill="none" xmlns="http://www.w3.org/2000/svg">
<path d="M21.8069 6.0757C23.5409 3.32938 24.6873 0.795237 28.2203 0.135651C31.2604 -0.431751 32.0226 0.874176 34.1864 2.32044L34.2566 2.36614L35.3231 2.57428C36.2195 2.75724 36.7993 2.92617 37.6641 3.21009C31.0534 5.42927 33.3233 8.89253 33.4391 14.2826C33.518 17.9593 31.7665 21.9642 29.1448 24.5661C24.675 29.0015 18.5791 29.9963 12.5139 30.0044C12.8139 29.41 13.0323 29.0768 13.4691 28.5835L14.8461 28.1311C19.6176 26.5563 24.3189 24.025 26.645 19.342C28.7097 15.184 28.1879 10.6998 24.504 7.68853C23.619 6.96535 22.8208 6.57942 21.8069 6.0757Z" fill="#80916B"/>
<path d="M20.9043 7.35889C21.4691 7.50414 22.2269 7.92164 22.7313 8.21802C26.8484 10.6346 27.3773 15.9004 24.8118 19.738C21.9542 24.0124 16.7546 26.3627 11.8648 27.4997C10.2167 27.8805 8.64665 27.9996 6.96436 28.1123C11.5534 21.2086 16.3854 14.2914 20.9043 7.35889Z" fill="#58644A"/>
<path d="M10.4244 29.1511C10.7621 29.0981 10.8595 29.0723 11.1945 29.0978L11.2007 29.2286C8.94915 33.5337 6.38799 38.93 0.719236 38.9963C0.459612 38.9965 0.214015 39.0295 0 38.8941C0.0464868 38.3994 5.30739 30.5858 6.02575 29.5163C7.52823 29.381 8.8895 29.3282 10.4244 29.1511Z" fill="#758B5A"/>
</svg>
